<?xml version="1.0" standalone="no"?>
<!DOCTYPE svg PUBLIC "-//W3C//DTD SVG 20010904//EN"
 "http://www.w3.org/TR/2001/REC-SVG-20010904/DTD/svg10.dtd">
<svg version="1.0" xmlns="http://www.w3.org/2000/svg"
 width="2223.000000pt" height="2050.000000pt" viewBox="0 0 2223.000000 2050.000000"
 preserveAspectRatio="xMidYMid meet">

<g transform="translate(0.000000,2050.000000) scale(0.100000,-0.100000)"
fill="blue" stroke="none">
<path d="M6360 20283 c-267 -20 -501 -131 -688 -327 -427 -450 -391 -1138 82
-1543 79 -67 195 -136 320 -189 l101 -43 0 -378 0 -377 -135 -22 c-288 -46
-518 -121 -780 -255 -472 -240 -866 -624 -1115 -1089 -141 -263 -223 -500
-282 -811 -17 -89 -18 -308 -19 -4289 l0 -4195 22 -46 c54 -109 178 -226 269
-255 70 -22 873 -33 886 -12 5 7 9 236 9 508 0 272 5 533 10 580 40 352 168
625 406 864 160 161 292 240 519 313 l120 38 758 3 758 2 92 -36 c51 -20 115
-51 142 -69 51 -32 144 -128 146 -149 0 -6 4 -2 8 9 5 11 9 79 10 150 0 72 4
233 7 359 6 195 5 228 -7 223 -309 -130 -374 -136 -506 -47 -167 111 -525 445
-693 645 -151 180 -306 402 -389 555 -77 145 -131 339 -131 472 0 154 68 538
206 1168 139 631 275 1119 454 1625 136 386 227 582 370 800 119 181 189 266
254 309 93 62 465 263 1239 668 161 85 155 73 103 225 -71 208 -163 388 -308
605 -216 323 -408 516 -726 727 -314 210 -689 354 -1069 412 l-83 12 0 164 0
164 153 -3 152 -3 0 -119 0 -118 68 5 c37 2 69 6 72 9 10 10 17 377 10 551
l-7 187 -69 0 c-48 0 -69 -4 -70 -12 -1 -7 -2 -49 -3 -93 -1 -44 -3 -92 -4
-107 l-2 -28 -150 0 -150 0 0 74 c0 78 6 106 22 106 5 0 46 16 91 36 292 128
498 344 607 637 72 194 77 457 14 660 -110 346 -392 622 -734 716 -84 24 -266
40 -360 34z m248 -289 c316 -65 567 -326 622 -647 6 -34 13 -74 16 -89 l6 -28
-285 0 c-286 0 -377 5 -377 22 0 4 23 63 51 131 49 116 139 346 139 355 0 18
-188 -210 -360 -436 l-55 -72 -316 0 c-174 0 -337 3 -363 6 l-47 7 7 41 c53
322 235 564 505 673 132 53 309 68 457 37z"/>
<path d="M15720 20280 c-129 -10 -251 -45 -372 -106 -126 -63 -287 -201 -378
-324 -53 -71 -128 -217 -153 -295 -45 -140 -60 -375 -33 -525 48 -266 213
-521 434 -672 87 -59 249 -141 310 -158 l42 -11 -2 -382 -3 -382 -55 -8 c-30
-4 -113 -19 -185 -33 -704 -135 -1356 -596 -1734 -1227 -128 -213 -290 -608
-291 -709 0 -11 60 -47 198 -119 288 -150 428 -219 445 -219 8 0 86 109 174
243 270 410 388 540 565 627 128 62 223 86 369 95 163 10 318 -8 449 -51 260
-86 299 -139 307 -420 9 -267 -27 -378 -141 -436 -74 -38 -125 -35 -286 17
-80 26 -170 49 -200 52 -49 4 -60 2 -102 -27 -95 -64 -196 -198 -333 -443
l-77 -138 75 -112 c196 -295 263 -435 393 -820 255 -754 370 -1199 594 -2283
84 -407 94 -611 40 -775 -49 -147 -194 -419 -298 -559 -249 -334 -735 -812
-922 -907 -47 -24 -67 -28 -135 -27 -73 0 -92 5 -209 52 -71 29 -130 51 -132
50 -1 -2 1 -111 4 -243 l7 -239 155 -3 c249 -5 356 -24 475 -84 l62 -32 120
41 c194 67 190 67 958 67 683 0 691 0 773 -22 104 -28 166 -61 241 -130 154
-139 189 -262 192 -665 1 -170 -2 -206 -21 -284 -24 -97 -76 -219 -115 -270
-14 -18 -25 -35 -25 -38 0 -3 23 -35 50 -72 28 -36 73 -112 100 -168 74 -156
103 -261 169 -621 l7 -40 149 0 c83 0 285 3 450 6 l300 5 55 29 c70 35 158
126 204 208 l36 64 0 4211 0 4211 -31 148 c-167 804 -688 1482 -1414 1838
-240 118 -447 185 -730 236 -66 12 -123 25 -127 28 -3 3 -8 77 -10 164 l-3
157 156 0 c184 0 169 13 166 -141 l-2 -99 66 0 66 0 7 61 c8 82 7 593 -2 644
l-7 40 -63 3 -62 3 -1 -33 c-1 -18 0 -37 1 -43 1 -5 -1 -45 -5 -87 l-7 -78
-154 0 -154 0 0 85 c0 79 2 86 23 95 224 91 314 146 442 276 252 252 354 563
300 914 -41 270 -190 520 -405 680 -220 163 -466 231 -750 210z m266 -281
c231 -42 445 -204 554 -419 50 -98 113 -320 96 -338 -4 -4 -151 -8 -327 -10
-264 -3 -320 -1 -325 11 -2 7 20 73 51 145 52 124 135 339 135 350 0 19 -130
-138 -324 -392 l-89 -116 -360 0 -360 0 7 70 c8 87 61 239 117 334 108 182
303 318 519 361 82 16 228 18 306 4z"/>
<path d="M10920 19530 c-85 -7 -477 -78 -580 -105 -32 -8 -62 -24 -73 -37 -34
-44 -224 -437 -265 -550 -75 -206 -98 -309 -132 -573 -12 -88 -26 -178 -32
-200 -10 -37 -11 -38 -19 -17 -17 44 -22 322 -10 462 15 156 55 406 104 638
19 89 31 164 27 167 -5 3 -26 -16 -47 -42 -145 -176 -232 -369 -333 -737 -130
-479 -182 -857 -226 -1646 -7 -119 -8 -123 -21 -92 -40 97 -46 168 -52 579 -3
221 -9 405 -13 409 -11 10 -47 -25 -68 -66 -29 -56 -39 -134 -51 -398 -9 -190
-9 -282 0 -392 24 -293 69 -418 216 -600 29 -36 58 -75 64 -88 7 -12 21 -136
32 -275 10 -138 23 -286 27 -328 4 -42 6 -82 4 -88 -2 -6 -54 -35 -116 -64
-62 -30 -220 -112 -352 -184 -131 -72 -327 -176 -434 -233 -953 -503 -911
-475 -1066 -710 -163 -248 -237 -416 -417 -950 -204 -603 -333 -1115 -529
-2100 -48 -243 -53 -276 -53 -405 0 -132 2 -145 32 -232 58 -165 139 -306 291
-508 156 -207 396 -458 627 -656 132 -113 183 -149 213 -149 13 0 72 19 131
42 117 46 642 306 846 418 260 144 385 210 395 210 15 0 -24 -73 -62 -116 -18
-20 -184 -137 -368 -260 -185 -122 -343 -231 -353 -241 -14 -17 -18 -62 -27
-344 -5 -178 -10 -396 -10 -483 l0 -159 89 86 c100 96 173 139 313 181 125 39
219 54 364 62 283 14 562 -30 741 -117 105 -50 226 -165 307 -292 31 -48 58
-87 60 -87 13 0 538 638 708 860 311 409 475 702 597 1072 24 70 47 130 52
134 6 3 24 -5 42 -19 56 -43 177 -158 177 -169 0 -15 -136 -254 -260 -458
-157 -256 -297 -474 -451 -697 -75 -109 -144 -211 -155 -227 l-18 -29 39 6
c22 3 67 11 100 16 81 15 1239 15 1366 1 103 -11 162 -28 254 -72 33 -15 69
-28 80 -28 11 0 66 16 123 35 181 61 226 66 567 72 171 2 360 5 420 6 l110 2
3 271 c1 149 -1 295 -5 325 l-8 54 -286 190 c-297 197 -425 287 -447 314 -23
28 -72 105 -72 113 0 18 30 4 194 -91 408 -235 949 -505 1135 -566 50 -16 56
-16 89 -1 110 53 445 362 657 606 262 302 419 561 461 759 38 180 -3 458 -191
1291 -138 613 -205 858 -392 1425 -186 565 -244 688 -477 1013 -107 150 -104
126 -37 252 183 347 250 448 386 586 181 184 260 198 562 98 72 -24 139 -44
147 -44 10 0 16 9 17 23 7 198 7 364 2 373 -12 17 -220 82 -305 95 -91 14
-279 6 -368 -17 -216 -55 -301 -140 -614 -613 -175 -265 -273 -400 -288 -401
-14 0 -427 213 -818 423 -221 118 -417 218 -519 263 l-64 28 6 140 c3 78 13
238 23 357 l17 217 79 93 c92 108 135 193 174 334 27 98 28 108 32 419 3 312
-6 508 -29 591 -12 42 -68 103 -182 198 -32 27 -64 58 -72 70 -7 12 -34 117
-60 232 -109 497 -207 783 -338 987 -33 51 -67 89 -67 73 0 -4 16 -81 35 -170
60 -279 69 -359 70 -600 0 -206 -1 -223 -22 -268 -22 -48 -47 -67 -63 -51 -5
5 -36 122 -69 259 -70 294 -177 597 -311 883 -45 95 -52 104 -92 122 -24 10
-133 35 -243 54 -309 55 -441 67 -575 56z m420 -1571 c167 -14 441 -61 570
-98 105 -30 342 -116 398 -145 16 -8 32 -22 36 -31 18 -48 -58 -930 -119
-1388 -29 -215 -40 -241 -133 -318 -351 -290 -618 -404 -992 -425 -209 -12
-423 25 -615 105 -121 50 -219 107 -367 213 -219 156 -238 180 -261 339 -54
367 -147 1392 -131 1453 10 41 46 64 172 111 451 167 933 228 1442 184z m1413
-338 c17 -31 31 -77 37 -123 13 -97 12 -411 0 -523 -11 -93 -28 -170 -36 -163
-2 3 -11 115 -19 249 -9 134 -22 327 -30 428 -8 101 -12 187 -9 193 9 14 27
-6 57 -61z m-3014 -2424 c41 -95 129 -289 196 -432 68 -143 126 -270 129 -282
10 -30 -4 -25 -114 45 -144 91 -239 132 -318 139 -85 7 -109 0 -282 -87 -159
-79 -292 -158 -476 -280 -74 -50 -138 -90 -143 -90 -5 0 -46 50 -91 111 -65
88 -79 113 -70 124 6 8 71 58 143 113 279 208 407 292 627 411 126 67 234 145
227 164 -9 26 -111 4 -467 -103 -107 -32 -215 -64 -240 -70 -25 -6 -53 -13
-62 -16 -10 -3 -18 -1 -18 4 0 5 62 38 138 75 198 96 736 347 742 347 3 0 38
-78 79 -173z m3011 58 c19 -12 136 -76 260 -142 244 -131 452 -249 738 -418
l182 -108 0 -68 c0 -74 11 -115 38 -136 9 -7 82 -47 162 -87 l145 -74 116
-149 c286 -366 369 -489 468 -694 113 -234 147 -356 306 -1094 52 -242 108
-501 124 -575 17 -74 28 -136 26 -138 -6 -6 -227 42 -240 53 -7 5 -39 80 -70
165 -32 85 -62 160 -66 166 -14 17 -161 46 -278 54 -58 4 -243 8 -411 9 -168
1 -341 4 -385 7 -141 10 -335 53 -335 75 0 20 184 123 330 184 147 62 541 182
705 215 110 21 133 30 138 49 14 55 -61 440 -129 658 -94 304 -199 526 -371
787 -64 95 -66 97 -84 80 -35 -36 -243 -476 -416 -879 -35 -82 -68 -154 -73
-159 -4 -4 -52 2 -106 14 -107 25 -364 96 -371 104 -6 5 27 67 212 401 67 121
164 299 215 395 51 96 103 194 116 217 l22 43 -76 69 c-252 227 -506 412 -644
469 -111 46 -184 58 -254 43 -106 -24 -196 -78 -374 -226 -125 -103 -120 -100
-120 -84 0 12 112 223 227 429 17 30 65 120 108 200 82 155 101 183 119 173 6
-4 27 -16 46 -28z m-606 -502 c-55 -95 -177 -251 -306 -392 -153 -167 -202
-193 -411 -216 -281 -31 -521 -12 -767 62 -96 28 -252 99 -290 131 l-25 21 40
-6 c22 -3 117 -21 210 -40 294 -58 616 -68 787 -23 240 63 364 138 631 385 82
75 151 134 154 131 3 -3 -7 -27 -23 -53z m-4029 -323 c124 -140 244 -325 252
-389 8 -57 -13 -108 -105 -257 -259 -422 -596 -1034 -578 -1051 2 -3 101 -23
218 -44 280 -52 507 -103 643 -144 114 -35 323 -109 332 -119 3 -3 -18 -48
-46 -101 -63 -115 -118 -241 -127 -290 -3 -19 -12 -35 -19 -35 -7 0 -41 13
-76 29 -235 106 -589 174 -986 188 l-182 6 -11 -29 c-39 -99 -115 -407 -185
-740 -15 -72 -31 -138 -36 -145 -17 -28 -24 6 -22 109 4 174 38 434 89 680 14
68 24 125 22 127 -1 1 -95 12 -207 24 -112 11 -205 22 -208 25 -5 4 150 391
189 473 27 56 13 54 241 33 75 -7 140 -10 143 -7 3 3 32 83 63 179 79 235 183
505 309 798 159 370 162 385 116 561 -21 82 -23 103 -13 115 21 26 112 73 124
66 7 -4 34 -32 60 -62z m815 -609 c49 -27 149 -113 227 -195 155 -164 218
-339 228 -639 l4 -138 -106 -70 c-114 -74 -281 -164 -289 -156 -3 3 2 67 11
144 28 240 35 387 25 518 -13 174 -17 184 -174 438 -36 59 -66 111 -66 115 0
12 111 -2 140 -17z m4138 -494 c-2 -12 -31 -68 -64 -123 l-59 -101 -184 -7
c-198 -7 -261 -13 -261 -27 0 -13 66 -44 144 -68 38 -12 205 -44 370 -71 456
-76 508 -95 650 -225 l69 -64 -95 -103 c-102 -111 -213 -245 -255 -310 -26
-39 -28 -40 -72 -33 -114 17 -414 131 -956 362 -327 139 -483 202 -636 257
-64 22 -118 46 -120 51 -2 6 70 47 161 92 541 270 909 389 1209 392 102 1 103
1 99 -22z m-2287 -259 c38 -13 69 -30 349 -195 379 -222 547 -308 1145 -583
302 -139 723 -328 838 -376 149 -62 347 -157 347 -166 0 -22 -313 -725 -394
-886 -29 -59 -41 -72 -54 -67 -9 4 -84 31 -167 60 -357 128 -1766 696 -1798
725 -11 10 52 145 146 313 88 156 145 269 181 356 30 74 42 131 29 131 -6 0
-137 -130 -291 -289 l-282 -289 -107 43 c-337 133 -502 210 -612 284 -34 23
-119 90 -189 148 -139 116 -199 151 -232 133 -11 -6 -20 -15 -20 -21 0 -30 51
-98 154 -206 l115 -120 -142 -7 c-78 -4 -224 -18 -325 -32 -203 -28 -398 -42
-482 -34 -53 5 -55 6 -53 33 4 54 115 262 190 354 98 120 533 331 1168 568
383 143 409 150 486 123z m-604 -1216 c198 -54 347 -167 509 -384 85 -114 169
-253 214 -354 29 -64 30 -68 13 -78 -10 -6 -144 -72 -298 -147 -334 -163 -495
-233 -825 -356 -271 -101 -523 -184 -531 -176 -8 8 -184 575 -232 748 -72 254
-139 548 -130 571 9 25 372 125 649 179 119 23 146 24 344 21 174 -4 229 -8
287 -24z m1303 -687 c195 -23 496 -91 692 -156 300 -100 635 -271 717 -365 56
-63 53 -91 -29 -303 -71 -181 -62 -174 -151 -121 -437 258 -1344 879 -1382
946 -10 18 -4 18 153 -1z m-439 -370 c47 -70 119 -219 111 -227 -32 -32 -905
-407 -1252 -539 -41 -15 -140 -53 -220 -83 -80 -31 -152 -56 -161 -56 -19 0
-192 257 -183 272 16 26 697 331 1029 460 203 79 608 218 630 215 10 -1 31
-20 46 -42z"/>
<path d="M10890 17501 c-110 -12 -291 -48 -384 -78 -245 -77 -379 -201 -431
-400 -31 -116 -17 -502 25 -694 56 -258 149 -359 460 -499 160 -72 235 -90
415 -97 184 -7 282 5 423 52 254 85 468 239 526 380 20 47 53 195 72 325 25
163 25 443 1 530 -42 154 -131 264 -272 337 -206 106 -580 171 -835 144z m945
-1138 c-28 -167 -79 -223 -295 -332 -79 -39 -173 -80 -210 -91 -232 -69 -734
60 -917 235 l-58 56 120 -6 c66 -3 152 -12 190 -20 39 -8 156 -18 260 -21 159
-6 204 -4 275 11 92 18 383 113 520 169 114 46 123 46 115 -1z"/>
<path d="M14900 12432 c0 -5 -16 -27 -35 -49 -38 -44 -66 -55 -295 -106 l-105
-24 55 -6 c30 -3 111 -11 180 -17 69 -6 153 -17 188 -24 34 -8 64 -11 66 -7 6
10 -38 241 -46 241 -5 0 -8 -4 -8 -8z"/>
<path d="M7216 12532 c-24 -46 -21 -69 12 -76 15 -3 126 -9 247 -11 391 -10
609 -36 908 -110 158 -39 200 -44 154 -19 -45 25 -272 79 -557 134 -146 28
-305 62 -355 75 -65 17 -132 25 -242 30 l-151 7 -16 -30z"/>
<path d="M13228 12569 c2 -57 7 -108 12 -113 12 -12 32 3 80 59 23 28 53 63
67 78 14 16 23 30 21 32 -9 8 -106 36 -142 41 l-41 6 3 -103z"/>
<path d="M8915 8200 c-133 -22 -218 -57 -250 -106 -24 -37 -111 -294 -250
-739 -24 -77 -88 -284 -143 -460 -107 -343 -372 -1202 -393 -1273 -7 -23 -10
-44 -7 -47 7 -8 386 -13 457 -6 59 5 67 9 82 36 17 29 52 134 164 488 l56 177
464 0 464 0 14 -27 c8 -16 38 -104 66 -198 78 -254 140 -440 154 -459 10 -14
46 -17 268 -23 185 -4 258 -3 263 5 8 14 -10 75 -218 753 -551 1792 -519 1691
-569 1766 -38 58 -80 80 -185 99 -99 18 -359 26 -437 14z m208 -507 c19 -38
93 -264 170 -523 106 -352 111 -371 95 -381 -17 -12 -559 -11 -577 0 -12 7 -3
47 49 228 74 261 185 621 205 669 17 41 40 44 58 7z"/>
<path d="M10977 8200 c-81 -10 -189 -67 -283 -147 -175 -152 -244 -327 -244
-619 0 -347 116 -587 335 -690 135 -64 182 -70 640 -84 322 -9 344 -13 405
-74 48 -47 61 -96 62 -238 2 -101 0 -107 -35 -182 -53 -111 -40 -108 -437
-117 -179 -4 -459 -8 -622 -8 l-298 -1 -2 -112 c0 -62 -1 -169 -2 -238 l-1
-125 730 3 730 4 69 34 c97 49 144 83 212 157 71 75 122 162 161 273 27 78 28
82 28 329 0 235 -1 255 -23 325 -35 112 -89 207 -161 283 -52 55 -82 77 -155
112 -50 24 -118 49 -151 55 -33 6 -208 15 -390 20 -371 11 -405 14 -457 43
-49 27 -70 74 -78 172 -10 132 2 198 45 261 21 30 51 62 66 69 40 21 108 24
658 30 272 3 497 8 500 11 9 9 7 441 -2 451 -11 10 -1220 13 -1300 3z"/>
<path d="M15210 8199 c-115 -13 -249 -88 -353 -198 -63 -66 -135 -202 -162
-305 -40 -157 -27 -440 28 -606 57 -173 153 -287 302 -356 114 -53 183 -61
635 -73 303 -9 313 -10 382 -63 56 -43 73 -99 73 -238 0 -110 -2 -118 -34
-187 -18 -40 -41 -79 -50 -86 -41 -36 -76 -37 -698 -37 l-613 0 0 -246 0 -246
733 7 732 7 75 39 c176 91 298 231 350 402 39 129 45 180 45 367 -1 171 -3
193 -28 285 -61 221 -150 338 -319 418 -55 27 -120 50 -158 56 -36 6 -209 15
-385 21 -382 12 -414 15 -456 43 -63 43 -74 76 -74 227 0 150 8 180 70 243 59
61 104 65 786 66 l416 1 2 221 c2 159 -1 225 -10 235 -10 12 -102 14 -618 13
-333 -1 -635 -5 -671 -10z"/>
<path d="M6140 8191 c-84 -12 -209 -88 -310 -190 -80 -80 -136 -165 -192 -291
l-43 -95 0 -670 c0 -722 0 -721 55 -862 97 -252 318 -465 520 -503 32 -6 237
-11 490 -11 409 -1 440 1 514 20 199 52 390 218 482 417 61 132 64 158 64 677
l0 467 -605 0 -605 0 -2 -210 c-1 -115 -2 -223 -3 -240 l-2 -30 333 0 334 0 4
-22 c12 -59 16 -184 7 -295 -10 -139 -29 -186 -100 -242 -80 -64 -88 -65 -401
-65 -276 0 -287 1 -338 23 -70 31 -153 121 -182 197 -34 92 -42 242 -38 749
l3 470 27 55 c31 63 96 134 149 161 50 25 109 28 674 34 489 5 542 8 557 23 5
5 10 106 11 223 l2 214 -680 1 c-374 1 -700 -1 -725 -5z"/>
<path d="M13025 8190 c-127 -15 -262 -115 -323 -240 -70 -144 -66 -84 -70
-1128 l-3 -943 38 -72 c48 -90 133 -176 216 -216 l62 -30 746 -1 c680 0 748 2
760 17 19 22 19 417 1 450 l-12 22 -553 0 c-303 1 -584 1 -624 1 -108 0 -103
-14 -103 283 0 139 3 269 6 290 l7 37 598 0 599 0 0 239 0 239 -387 6 c-214 3
-479 8 -591 9 -141 3 -206 7 -215 16 -15 14 -23 420 -10 497 8 49 9 49 53 56
25 3 180 7 345 7 165 1 431 4 592 8 l292 6 8 46 c9 59 9 279 -1 354 l-7 57
-682 -1 c-375 -1 -709 -5 -742 -9z"/>
<path d="M6178 4965 c-14 -8 -37 -32 -49 -52 -32 -52 -97 -122 -130 -139 -87
-44 -212 -20 -514 99 -104 41 -208 80 -230 86 -58 16 -252 14 -309 -3 -119
-36 -286 -174 -344 -284 -32 -61 -78 -199 -108 -321 -26 -110 -17 -118 159
-120 132 -1 152 9 206 104 56 97 108 145 158 145 21 0 157 -40 303 -90 380
-128 406 -134 580 -135 l145 0 64 33 c126 66 218 180 297 369 76 182 103 304
68 317 -34 13 -268 6 -296 -9z"/>
<path d="M6175 4094 c-69 -10 -72 -12 -79 -56 -3 -24 -8 -648 -11 -1388 -3
-740 -8 -1378 -11 -1418 -6 -77 -21 -99 -49 -71 -16 16 -84 257 -380 1339
-236 863 -348 1256 -374 1314 -23 53 -121 159 -176 192 -157 92 -561 112 -803
41 -164 -49 -275 -157 -342 -333 -34 -90 -39 -320 -40 -1869 l-2 -1370 24 -13
c29 -15 671 -13 686 3 16 17 22 497 22 1738 l0 1188 28 -3 c21 -2 32 -13 49
-48 13 -25 97 -319 187 -655 230 -855 449 -1644 517 -1865 11 -35 32 -85 46
-110 43 -73 163 -184 240 -222 l68 -33 315 0 315 0 70 35 c136 68 259 216 325
392 l21 58 -3 1552 c-2 854 -7 1561 -12 1570 -4 9 -15 20 -24 24 -18 7 -556
14 -607 8z"/>
<path d="M7186 4058 c-4 -24 -4 -671 0 -1438 l6 -1395 39 -100 c47 -123 94
-203 180 -309 115 -143 280 -260 434 -309 233 -75 978 -86 1280 -20 97 21 255
84 348 138 96 57 213 166 272 255 65 97 133 245 150 325 10 46 19 174 25 375
10 338 13 2393 4 2453 -4 24 -15 42 -28 50 -24 13 -611 18 -657 5 l-27 -8 -6
-162 c-3 -90 -8 -678 -11 -1308 l-5 -1145 -46 -92 c-54 -112 -123 -187 -212
-232 l-61 -31 -193 0 c-106 1 -263 5 -350 9 -133 7 -161 11 -191 30 -86 53
-170 176 -203 298 -21 79 -25 292 -27 1578 l-2 1070 -356 3 -356 2 -7 -42z"/>
<path d="M10227 4048 c-21 -176 -15 -3564 6 -3585 5 -4 464 -8 1020 -8 l1012
0 95 24 c186 47 357 157 474 304 118 150 175 325 207 632 27 271 -22 515 -135
660 -17 22 -71 85 -121 140 -50 55 -100 114 -112 131 l-22 31 50 49 c98 96
170 230 215 399 16 60 19 110 19 340 0 259 -1 273 -24 340 -66 192 -171 335
-328 443 -51 36 -163 88 -234 110 -86 27 -202 30 -1280 38 l-836 6 -6 -54z
m1835 -651 c74 -36 142 -98 161 -146 29 -72 41 -200 28 -301 -21 -166 -58
-228 -170 -285 l-49 -24 -479 -7 c-263 -4 -504 -4 -535 0 l-58 7 0 358 c0 197
3 372 6 389 4 17 14 33 23 36 9 3 241 4 516 3 l501 -3 56 -27z m-115 -1456
l232 -7 43 -30 c54 -37 101 -107 124 -182 28 -88 26 -275 -3 -368 -47 -147
-129 -226 -249 -237 -89 -9 -450 -9 -830 0 l-299 6 -4 351 c-1 194 0 377 4
409 l7 56 87 4 c165 6 658 5 888 -2z"/>
<path d="M13337 4094 c-12 -12 -9 -2840 3 -2952 42 -387 217 -581 596 -662 87
-19 152 -22 554 -31 496 -11 1171 -2 1190 17 7 7 9 111 8 319 l-3 310 -40 7
c-22 3 -328 7 -680 8 -352 0 -680 5 -730 10 -97 10 -130 26 -154 76 -19 37
-29 727 -30 1997 l-1 897 -92 0 c-51 1 -210 3 -353 6 -143 3 -263 2 -268 -2z"/>
<path d="M16378 4079 c-81 -11 -179 -45 -254 -90 -124 -75 -250 -249 -289
-399 -29 -112 -34 -334 -34 -1425 0 -1163 4 -1299 43 -1379 54 -109 174 -235
273 -285 108 -54 96 -54 1170 -55 940 -1 993 0 1010 17 17 16 18 43 18 325 l0
307 -55 6 c-30 4 -368 7 -750 8 -800 1 -956 6 -966 30 -3 9 -9 131 -11 271 -6
263 2 496 18 521 7 12 135 15 813 19 643 4 808 8 818 18 10 10 13 80 13 310 0
163 -4 309 -8 325 l-7 27 -703 0 c-386 0 -753 3 -815 7 -110 6 -113 7 -120 32
-4 14 -7 184 -7 378 0 275 3 355 13 365 10 10 186 14 870 19 471 3 865 9 874
13 11 5 20 25 24 53 8 56 0 560 -9 570 -4 3 -31 10 -60 14 -72 10 -1787 8
-1869 -2z"/>
</g>
</svg>
